<svg width="27" height="28" viewBox="0 0 27 28" fill="none" xmlns="http://www.w3.org/2000/svg">
<path d="M24.1072 9.01196L2.89287 9.01196C2.35962 9.01196 1.92859 9.443 1.92859 9.97625L1.92859 12.8691C1.92859 18.1862 6.25437 22.512 11.5714 22.512C15.5163 22.512 18.9116 20.1273 20.4033 16.7262L22.1786 16.7262C23.7735 16.7262 25.0714 15.4283 25.0714 13.8334L25.0714 9.97625C25.0714 9.443 24.6404 9.01196 24.1072 9.01196ZM23.1429 13.8334C23.1429 14.3657 22.7109 14.7977 22.1786 14.7977H21.0195C21.1468 14.1747 21.2143 13.5296 21.2143 12.8691L21.2143 10.9405L23.1429 10.9405L23.1429 13.8334Z" fill="#171A1F"/>
<path d="M20.25 23.4763L2.89287 23.4763C2.35962 23.4763 1.92859 23.9073 1.92859 24.4405C1.92859 24.9738 2.35962 25.4048 2.89287 25.4048L20.25 25.4048C20.7833 25.4048 21.2143 24.9738 21.2143 24.4405C21.2143 23.9073 20.7833 23.4763 20.25 23.4763Z" fill="#171A1F"/>
<path d="M7.71428 3.22626L5.78571 3.22626L5.78571 7.0834L7.71428 7.0834L7.71428 3.22626Z" fill="#171A1F"/>
<path d="M12.5357 2.26196L10.6071 2.26196L10.6071 6.11911L12.5357 6.11911L12.5357 2.26196Z" fill="#171A1F"/>
<path d="M17.3572 3.22626L15.4286 3.22626L15.4286 7.0834L17.3572 7.0834L17.3572 3.22626Z" fill="#171A1F"/>
</svg>
