<svg width="18" height="24" viewBox="0 0 18 24" fill="none" xmlns="http://www.w3.org/2000/svg">
<path d="M9.00315 10.4062C7.01565 10.4062 5.41252 12.0094 5.41252 13.9969C5.41252 15.9844 7.01565 17.5875 9.00315 17.5875C10.9906 17.5875 12.5938 15.9844 12.5938 13.9969C12.5938 12.0094 10.9906 10.4062 9.00315 10.4062ZM9.00315 16.3312C7.71877 16.3312 6.66877 15.2844 6.66877 13.9969C6.66877 12.7094 7.71565 11.6625 9.00315 11.6625C10.2906 11.6625 11.3375 12.7094 11.3375 13.9969C11.3375 15.2844 10.2875 16.3312 9.00315 16.3312ZM13.5781 10.2594C13.5781 10.725 13.2032 11.0969 12.7407 11.0969C12.275 11.0969 11.9031 10.7219 11.9031 10.2594C11.9031 9.79685 12.2782 9.42185 12.7407 9.42185C13.2032 9.42185 13.5781 9.79685 13.5781 10.2594ZM15.9563 11.1094C15.9031 9.98748 15.6469 8.99373 14.825 8.17498C14.0063 7.35623 13.0125 7.09998 11.8906 7.04373C10.7344 6.9781 7.26877 6.9781 6.11252 7.04373C4.99377 7.09685 4.00002 7.3531 3.17815 8.17185C2.35627 8.9906 2.10315 9.98435 2.0469 11.1062C1.98127 12.2625 1.98127 15.7281 2.0469 16.8843C2.10002 18.0062 2.35627 19 3.17815 19.8187C4.00002 20.6375 4.99065 20.8937 6.11252 20.95C7.26877 21.0156 10.7344 21.0156 11.8906 20.95C13.0125 20.8969 14.0063 20.6406 14.825 19.8187C15.6438 19 15.9 18.0062 15.9563 16.8843C16.0219 15.7281 16.0219 12.2656 15.9563 11.1094ZM14.4625 18.125C14.2188 18.7375 13.7469 19.2094 13.1313 19.4562C12.2094 19.8219 10.0219 19.7375 9.00315 19.7375C7.9844 19.7375 5.79377 19.8187 4.87502 19.4562C4.26252 19.2125 3.79065 18.7406 3.54377 18.125C3.17815 17.2031 3.26252 15.0156 3.26252 13.9969C3.26252 12.9781 3.18127 10.7875 3.54377 9.86873C3.78752 9.25623 4.2594 8.78435 4.87502 8.53748C5.7969 8.17185 7.9844 8.25623 9.00315 8.25623C10.0219 8.25623 12.2125 8.17498 13.1313 8.53748C13.7438 8.78123 14.2156 9.2531 14.4625 9.86873C14.8281 10.7906 14.7438 12.9781 14.7438 13.9969C14.7438 15.0156 14.8281 17.2062 14.4625 18.125Z" fill="#9CA3AF"/>
</svg>
