<svg width="27" height="28" viewBox="0 0 27 28" fill="none" xmlns="http://www.w3.org/2000/svg">
<path d="M25.0714 6.69765C24.2036 7.08337 23.3357 7.37265 22.3714 7.46908C23.3357 6.89051 24.1072 5.92623 24.4929 4.86551C23.5286 5.44408 22.5643 5.8298 21.5036 6.02265C20.6357 5.05837 19.3822 4.4798 18.0322 4.4798C15.4286 4.4798 13.3072 6.60123 13.3072 9.2048C13.3072 9.59051 13.3072 9.97623 13.4036 10.2655C9.35359 10.0727 5.88216 8.14408 3.56787 5.25123C3.08573 6.02265 2.89287 6.79408 2.89287 7.66194C2.89287 9.30123 3.76073 10.7477 5.0143 11.6155C4.24287 11.6155 3.47145 11.4227 2.89287 11.0369C2.89287 11.0369 2.89287 11.0369 2.89287 11.1334C2.89287 13.4477 4.53216 15.3762 6.65359 15.7619C6.26787 15.8584 5.88216 15.9548 5.40002 15.9548C5.11073 15.9548 4.82145 15.9548 4.53216 15.8584C5.11073 17.7869 6.84645 19.1369 8.96787 19.1369C7.32859 20.3905 5.30359 21.1619 3.08573 21.1619C2.70002 21.1619 2.3143 21.1619 1.92859 21.0655C4.05002 22.4155 6.55716 23.1869 9.16073 23.1869C17.9357 23.1869 22.6607 15.9548 22.6607 9.68694C22.6607 9.49408 22.6607 9.30123 22.6607 9.10837C23.625 8.43337 24.3964 7.56551 25.0714 6.69765Z" fill="#171A1F"/>
</svg>
